<svg width="110" height="19" viewBox="0 0 110 19" fill="none" xmlns="http://www.w3.org/2000/svg">
<path d="M12.0938 11.7656C12.0938 11.1484 11.9766 10.5664 11.7422 10.0195C11.5078 9.47266 11.1875 8.99609 10.7812 8.58984C10.375 8.18359 9.89844 7.86328 9.35156 7.62891C8.8125 7.39453 8.23828 7.27734 7.62891 7.27734C7.01172 7.27734 6.42969 7.39453 5.88281 7.62891C5.34375 7.86328 4.87109 8.18359 4.46484 8.58984C4.06641 8.99609 3.75 9.47266 3.51562 10.0195C3.28125 10.5664 3.16406 11.1484 3.16406 11.7656C3.16406 12.375 3.28125 12.9492 3.51562 13.4883C3.75 14.0273 4.06641 14.5 4.46484 14.9062C4.87109 15.3125 5.34375 15.6328 5.88281 15.8672C6.42969 16.1016 7.01172 16.2188 7.62891 16.2188C7.80859 16.2188 8 16.207 8.20312 16.1836C8.41406 16.1523 8.66406 16.0938 8.95312 16.0078L9.48047 18.1875C9.10547 18.2891 8.76953 18.3594 8.47266 18.3984C8.18359 18.4375 7.90234 18.457 7.62891 18.457C6.72266 18.457 5.86328 18.2773 5.05078 17.918C4.23828 17.5586 3.52344 17.0742 2.90625 16.4648C2.29688 15.8477 1.8125 15.1367 1.45312 14.332C1.09375 13.5195 0.914062 12.6641 0.914062 11.7656C0.914062 10.7969 1.08203 9.90234 1.41797 9.08203C1.76172 8.25391 2.23047 7.54297 2.82422 6.94922C3.42578 6.34766 4.13672 5.87891 4.95703 5.54297C5.77734 5.20703 6.66797 5.03906 7.62891 5.03906C8.58203 5.03906 9.46875 5.21094 10.2891 5.55469C11.1094 5.89062 11.8164 6.35938 12.4102 6.96094C13.0117 7.5625 13.4805 8.27344 13.8164 9.09375C14.1602 9.91406 14.332 10.8047 14.332 11.7656C14.332 12.2812 14.2695 12.7656 14.1445 13.2188C14.0273 13.6719 13.832 14.168 13.5586 14.707H8.37891V14.5195C8.19922 14.6133 8.02344 14.6797 7.85156 14.7188C7.67969 14.75 7.53516 14.7656 7.41797 14.7656C6.97266 14.7656 6.56641 14.6953 6.19922 14.5547C5.83984 14.4062 5.53125 14.1992 5.27344 13.9336C5.01562 13.668 4.81641 13.3555 4.67578 12.9961C4.53516 12.6289 4.46484 12.2266 4.46484 11.7891C4.46484 11.3438 4.53125 10.9375 4.66406 10.5703C4.80469 10.2031 5.00391 9.88672 5.26172 9.62109C5.51953 9.35547 5.82812 9.15234 6.1875 9.01172C6.55469 8.86328 6.96484 8.78906 7.41797 8.78906C7.53516 8.78906 7.67969 8.80859 7.85156 8.84766C8.02344 8.87891 8.19922 8.9375 8.37891 9.02344V8.49609H10.5586V12.7969H11.9766C12.0234 12.6172 12.0547 12.4453 12.0703 12.2812C12.0859 12.1172 12.0938 11.9453 12.0938 11.7656ZM6.62109 11.7891C6.62109 12.0547 6.69922 12.2656 6.85547 12.4219C7.01953 12.5703 7.23828 12.6445 7.51172 12.6445C7.77734 12.6445 7.98828 12.5703 8.14453 12.4219C8.30078 12.2656 8.37891 12.0547 8.37891 11.7891C8.37891 11.5078 8.30078 11.2891 8.14453 11.1328C7.98828 10.9766 7.77734 10.8984 7.51172 10.8984C7.23828 10.8984 7.01953 10.9766 6.85547 11.1328C6.69922 11.2891 6.62109 11.5078 6.62109 11.7891ZM19.5352 18H16.3359V5.44922H17.1094L18.1641 6.66797C18.6797 6.19922 19.2617 5.83984 19.9102 5.58984C20.5664 5.33203 21.25 5.20312 21.9609 5.20312C22.7266 5.20312 23.4492 5.35156 24.1289 5.64844C24.8086 5.9375 25.4023 6.33984 25.9102 6.85547C26.418 7.36328 26.8164 7.96094 27.1055 8.64844C27.4023 9.32812 27.5508 10.0547 27.5508 10.8281V18H24.3516V10.8281C24.3516 10.5 24.2891 10.1914 24.1641 9.90234C24.0391 9.60547 23.8672 9.34766 23.6484 9.12891C23.4297 8.91016 23.1758 8.73828 22.8867 8.61328C22.5977 8.48828 22.2891 8.42578 21.9609 8.42578C21.625 8.42578 21.3086 8.48828 21.0117 8.61328C20.7148 8.73828 20.457 8.91016 20.2383 9.12891C20.0195 9.34766 19.8477 9.60547 19.7227 9.90234C19.5977 10.1914 19.5352 10.5 19.5352 10.8281V18ZM41.9648 11.6133C41.9648 12.5508 41.7969 13.4258 41.4609 14.2383C41.125 15.043 40.668 15.7422 40.0898 16.3359C39.5117 16.9219 38.832 17.3867 38.0508 17.7305C37.2773 18.0664 36.4453 18.2344 35.5547 18.2344C34.6719 18.2344 33.8398 18.0664 33.0586 17.7305C32.2852 17.3867 31.6055 16.9219 31.0195 16.3359C30.4414 15.7422 29.9844 15.043 29.6484 14.2383C29.3125 13.4258 29.1445 12.5508 29.1445 11.6133C29.1445 10.6602 29.3125 9.77734 29.6484 8.96484C29.9844 8.15234 30.4414 7.45312 31.0195 6.86719C31.6055 6.27344 32.2852 5.80859 33.0586 5.47266C33.8398 5.13672 34.6719 4.96875 35.5547 4.96875C36.4453 4.96875 37.2773 5.12891 38.0508 5.44922C38.832 5.76172 39.5117 6.21094 40.0898 6.79688C40.668 7.375 41.125 8.07422 41.4609 8.89453C41.7969 9.70703 41.9648 10.6133 41.9648 11.6133ZM38.7422 11.6133C38.7422 11.0977 38.6562 10.6328 38.4844 10.2188C38.3203 9.79688 38.0938 9.4375 37.8047 9.14062C37.5156 8.83594 37.1758 8.60547 36.7852 8.44922C36.4023 8.28516 35.9922 8.20312 35.5547 8.20312C35.1172 8.20312 34.7031 8.28516 34.3125 8.44922C33.9297 8.60547 33.5938 8.83594 33.3047 9.14062C33.0234 9.4375 32.8008 9.79688 32.6367 10.2188C32.4727 10.6328 32.3906 11.0977 32.3906 11.6133C32.3906 12.0977 32.4727 12.5469 32.6367 12.9609C32.8008 13.375 33.0234 13.7344 33.3047 14.0391C33.5938 14.3438 33.9297 14.5859 34.3125 14.7656C34.7031 14.9375 35.1172 15.0234 35.5547 15.0234C35.9922 15.0234 36.4023 14.9414 36.7852 14.7773C37.1758 14.6133 37.5156 14.3828 37.8047 14.0859C38.0938 13.7891 38.3203 13.4297 38.4844 13.0078C38.6562 12.5859 38.7422 12.1211 38.7422 11.6133ZM52.957 16.5352C52.6992 16.7695 52.4219 16.9922 52.125 17.2031C51.8359 17.4062 51.5312 17.5859 51.2109 17.7422C50.8906 17.8906 50.5586 18.0078 50.2148 18.0938C49.8789 18.1875 49.5352 18.2344 49.1836 18.2344C48.4102 18.2344 47.6836 18.0977 47.0039 17.8242C46.3242 17.5508 45.7266 17.1641 45.2109 16.6641C44.7031 16.1562 44.3008 15.543 44.0039 14.8242C43.7148 14.0977 43.5703 13.2852 43.5703 12.3867V5.44922H46.7578V12.3867C46.7578 12.8086 46.8203 13.1875 46.9453 13.5234C47.0781 13.8516 47.2539 14.1289 47.4727 14.3555C47.6914 14.582 47.9453 14.7539 48.2344 14.8711C48.5312 14.9883 48.8477 15.0469 49.1836 15.0469C49.5117 15.0469 49.8203 14.9727 50.1094 14.8242C50.4062 14.668 50.6641 14.4648 50.8828 14.2148C51.1016 13.9648 51.2734 13.6836 51.3984 13.3711C51.5234 13.0508 51.5859 12.7227 51.5859 12.3867V5.44922H54.7852V18H54.0117L52.957 16.5352ZM60.7969 18L56.0156 5.44922H59.6602L62.4023 13.2773L65.1328 5.44922H68.7891L64.0078 18H60.7969ZM81.7852 18H81.0117L79.7695 16.2773C79.4648 16.5508 79.1406 16.8086 78.7969 17.0508C78.4609 17.2852 78.1055 17.4922 77.7305 17.6719C77.3555 17.8438 76.9688 17.9805 76.5703 18.082C76.1797 18.1836 75.7812 18.2344 75.375 18.2344C74.4922 18.2344 73.6602 18.0859 72.8789 17.7891C72.1055 17.4922 71.4258 17.0625 70.8398 16.5C70.2617 15.9297 69.8047 15.2344 69.4688 14.4141C69.1328 13.5938 68.9648 12.6602 68.9648 11.6133C68.9648 10.6367 69.1328 9.74219 69.4688 8.92969C69.8047 8.10938 70.2617 7.40625 70.8398 6.82031C71.4258 6.23438 72.1055 5.78125 72.8789 5.46094C73.6602 5.13281 74.4922 4.96875 75.375 4.96875C75.7812 4.96875 76.1836 5.01953 76.582 5.12109C76.9805 5.22266 77.3672 5.36328 77.7422 5.54297C78.1172 5.72266 78.4727 5.93359 78.8086 6.17578C79.1523 6.41797 79.4727 6.67969 79.7695 6.96094L81.0117 5.47266H81.7852V18ZM78.5625 11.6133C78.5625 11.1758 78.4766 10.7539 78.3047 10.3477C78.1406 9.93359 77.9141 9.57031 77.625 9.25781C77.3359 8.9375 76.9961 8.68359 76.6055 8.49609C76.2227 8.30078 75.8125 8.20312 75.375 8.20312C74.9375 8.20312 74.5234 8.27734 74.1328 8.42578C73.75 8.57422 73.4141 8.79297 73.125 9.08203C72.8438 9.37109 72.6211 9.73047 72.457 10.1602C72.293 10.582 72.2109 11.0664 72.2109 11.6133C72.2109 12.1602 72.293 12.6484 72.457 13.0781C72.6211 13.5 72.8438 13.8555 73.125 14.1445C73.4141 14.4336 73.75 14.6523 74.1328 14.8008C74.5234 14.9492 74.9375 15.0234 75.375 15.0234C75.8125 15.0234 76.2227 14.9297 76.6055 14.7422C76.9961 14.5469 77.3359 14.293 77.625 13.9805C77.9141 13.6602 78.1406 13.2969 78.3047 12.8906C78.4766 12.4766 78.5625 12.0508 78.5625 11.6133ZM87.457 18H84.2344V0.457031H87.457V18ZM93.1055 18H89.9062V5.44922H90.6797L91.7344 6.9375C92.25 6.46875 92.8359 6.10938 93.4922 5.85938C94.1484 5.60156 94.8281 5.47266 95.5312 5.47266H98.3555V8.66016H95.5312C95.1953 8.66016 94.8789 8.72266 94.582 8.84766C94.2852 8.97266 94.0273 9.14453 93.8086 9.36328C93.5898 9.58203 93.418 9.83984 93.293 10.1367C93.168 10.4336 93.1055 10.75 93.1055 11.0859V18ZM109.641 18H99.1758L104.461 8.66016H99.1758V5.47266H109.641L104.355 14.8125H109.641V18Z" fill="white"/>
<path d="M0 21.1875H15.1172V21.668H0V21.1875Z" fill="white"/>
<path d="M15.1172 21.1875H110.191V21.668H15.1172V21.1875Z" fill="white"/>
</svg>
